<svg aria-hidden="true" style="position: absolute; width: 0; height: 0; overflow: hidden;" version="1.1" xmlns="http://www.w3.org/2000/svg" xmlns:xlink="http://www.w3.org/1999/xlink">
<defs>
<symbol id="icon-up-circle" viewBox="0 0 32 32">
<path d="M4.451 6.051c-2.87 2.87-4.451 6.688-4.451 10.749s1.581 7.877 4.451 10.749 6.688 4.451 10.749 4.451 7.877-1.581 10.749-4.451 4.451-6.688 4.451-10.747-1.581-7.877-4.451-10.749-6.688-4.451-10.749-4.451-7.877 1.581-10.749 4.451zM28.8 16.8c0 7.499-6.101 13.6-13.6 13.6s-13.6-6.101-13.6-13.6c0-7.499 6.101-13.6 13.6-13.6s13.6 6.101 13.6 13.6z"></path>
<path d="M24 19.2c0 0.205-0.078 0.41-0.234 0.566-0.312 0.312-0.819 0.312-1.131 0l-7.434-7.434-7.434 7.434c-0.312 0.312-0.819 0.312-1.131 0s-0.312-0.819 0-1.131l8-8c0.312-0.312 0.819-0.312 1.131 0l8 8c0.157 0.157 0.234 0.362 0.234 0.566z"></path>
</symbol>
<symbol id="icon-oon" viewBox="0 0 32 32">
<path d="M16.4 32c-4.381 0-8.499-1.706-11.597-4.803s-4.803-7.216-4.803-11.597c0-3.602 1.157-7 3.344-9.829 1.048-1.355 2.302-2.536 3.73-3.51 1.438-0.982 3.021-1.733 4.701-2.227 0.307-0.091 0.638 0.011 0.843 0.258s0.242 0.59 0.096 0.875c-1.032 2.011-1.512 3.928-1.512 6.035 0 7.499 6.101 13.6 13.6 13.6 2.107 0 4.024-0.48 6.035-1.512 0.285-0.146 0.629-0.109 0.875 0.096s0.347 0.536 0.258 0.843c-0.496 1.68-1.245 3.262-2.227 4.701-0.974 1.427-2.155 2.682-3.51 3.73-2.829 2.187-6.229 3.344-9.829 3.344zM10.512 2.184c-5.398 2.312-8.912 7.502-8.912 13.416 0 8.16 6.64 14.8 14.8 14.8 5.914 0 11.104-3.515 13.416-8.912-1.638 0.613-3.293 0.912-5.016 0.912-4.061 0-7.877-1.581-10.747-4.451s-4.453-6.688-4.453-10.749c0-1.723 0.301-3.378 0.912-5.016z"></path>
</symbol>
<symbol id="icon-sun" viewBox="0 0 32 32">
<path d="M15.2 23.989c-3.963 0-7.189-3.224-7.189-7.189s3.224-7.189 7.189-7.189 7.189 3.224 7.189 7.189-3.224 7.189-7.189 7.189zM15.2 11.211c-3.082 0-5.589 2.507-5.589 5.589s2.507 5.589 5.589 5.589 5.589-2.507 5.589-5.589-2.507-5.589-5.589-5.589z"></path>
<path d="M15.2 8c-0.442 0-0.8-0.358-0.8-0.8v-4.8c0-0.442 0.358-0.8 0.8-0.8s0.8 0.358 0.8 0.8v4.8c0 0.442-0.358 0.8-0.8 0.8z"></path>
<path d="M15.2 32c-0.442 0-0.8-0.358-0.8-0.8v-4.8c0-0.442 0.358-0.8 0.8-0.8s0.8 0.358 0.8 0.8v4.8c0 0.442-0.358 0.8-0.8 0.8z"></path>
<path d="M5.6 17.6h-4.8c-0.442 0-0.8-0.358-0.8-0.8s0.358-0.8 0.8-0.8h4.8c0.442 0 0.8 0.358 0.8 0.8s-0.358 0.8-0.8 0.8z"></path>
<path d="M29.6 17.6h-4.8c-0.442 0-0.8-0.358-0.8-0.8s0.358-0.8 0.8-0.8h4.8c0.442 0 0.8 0.358 0.8 0.8s-0.358 0.8-0.8 0.8z"></path>
<path d="M7.2 9.6c-0.205 0-0.41-0.078-0.566-0.234l-3.2-3.2c-0.312-0.312-0.312-0.819 0-1.131s0.819-0.312 1.131 0l3.2 3.2c0.312 0.312 0.312 0.819 0 1.131-0.157 0.157-0.362 0.234-0.566 0.234z"></path>
<path d="M4 28.8c-0.205 0-0.41-0.078-0.566-0.234-0.312-0.312-0.312-0.819 0-1.131l3.2-3.2c0.312-0.312 0.819-0.312 1.131 0s0.312 0.819 0 1.131l-3.2 3.2c-0.157 0.157-0.362 0.234-0.566 0.234z"></path>
<path d="M26.4 28.8c-0.205 0-0.41-0.078-0.566-0.234l-3.2-3.2c-0.312-0.312-0.312-0.819 0-1.131s0.819-0.312 1.131 0l3.2 3.2c0.312 0.312 0.312 0.819 0 1.131-0.157 0.157-0.362 0.234-0.566 0.234z"></path>
<path d="M23.2 9.6c-0.205 0-0.41-0.078-0.566-0.234-0.312-0.312-0.312-0.819 0-1.131l3.2-3.2c0.312-0.312 0.819-0.312 1.131 0s0.312 0.819 0 1.131l-3.2 3.2c-0.157 0.157-0.362 0.234-0.566 0.234z"></path>
</symbol>
</defs>
</svg>
